<?xml version="1.0" encoding="iso-8859-1"?>
<!-- Uploaded to: SVG Repo, www.svgrepo.com, Generator: SVG Repo Mixer Tools -->
<svg height="800px" width="800px" version="1.1" id="Layer_1" xmlns="http://www.w3.org/2000/svg" xmlns:xlink="http://www.w3.org/1999/xlink" 
	 viewBox="0 0 512 512" xml:space="preserve">
<g>
	<polygon style="fill:#4482C3;" points="300.139,423.724 300.139,335.448 229.518,335.448 229.518,423.724 185.38,423.724 
		264.828,512 344.277,423.724 	"/>
	<path style="fill:#24AE5F;" d="M434.238,26.483c4.511,7.795,7.142,16.825,7.142,26.483c0,29.246-23.711,52.966-52.966,52.966
		c-29.246,0-52.966-23.72-52.966-52.966c0-9.657,2.631-18.688,7.142-26.483H8.828v308.966h494.345V26.483H434.238z"/>
	<path style="fill:#1B8746;" d="M454.622,114.759c-14.98,0-28.372-6.797-37.279-17.461c-8.316,5.447-18.247,8.633-28.928,8.633
		c-26.236,0-47.96-19.094-52.171-44.138h-80.243h-150.29c0.132,1.457,0.221,2.922,0.221,4.414c0,26.809-21.734,48.552-48.552,48.552
		c-1.492,0-2.957-0.097-4.414-0.221v103.38c9.49-14.292,25.706-23.711,44.138-23.711c29.246,0,52.966,23.72,52.966,52.966
		c0,18.432-9.428,34.657-23.711,44.138h129.642h150.29c-0.132-1.457-0.221-2.922-0.221-4.414c0-26.809,21.734-48.552,48.552-48.552
		c1.492,0,2.957,0.097,4.414,0.221V114.538C457.579,114.662,456.113,114.759,454.622,114.759"/>
	<g>
		<path style="fill:#65DB95;" d="M264.828,248.155c-24.338,0-44.138-19.8-44.138-44.138c0-4.882,3.955-8.828,8.828-8.828
			c4.873,0,8.828,3.946,8.828,8.828c0,14.601,11.882,26.483,26.483,26.483c7.804,0,15.183-3.425,20.233-9.393
			c2.26-2.675,3.302-6.144,2.922-9.754c-0.406-3.875-2.401-7.486-5.491-9.878l-46.168-35.911
			c-6.859-5.332-11.308-13.347-12.209-21.99c-0.883-8.439,1.607-16.605,7.009-22.978c8.404-9.949,20.692-15.651,33.704-15.651
			c24.338,0,44.138,19.809,44.138,44.138c0,4.882-3.955,8.828-8.828,8.828c-4.873,0-8.828-3.946-8.828-8.828
			c0-14.601-11.882-26.483-26.483-26.483c-7.804,0-15.183,3.425-20.233,9.401c-2.26,2.675-3.302,6.135-2.922,9.746
			c0.406,3.884,2.401,7.486,5.491,9.878l46.168,35.919c6.859,5.323,11.308,13.347,12.209,21.981
			c0.883,8.439-1.607,16.605-7.009,22.987C290.128,242.452,277.84,248.155,264.828,248.155"/>
		<path style="fill:#65DB95;" d="M264.828,263.845c-4.873,0-8.828-3.946-8.828-8.828V97.092c0-4.873,3.955-8.828,8.828-8.828
			s8.828,3.955,8.828,8.828v157.926C273.656,259.899,269.701,263.845,264.828,263.845"/>
	</g>
	<g>
		<path style="fill:#F0C419;" d="M441.38,52.966c0,29.246-23.72,52.966-52.966,52.966s-52.966-23.72-52.966-52.966
			S359.169,0,388.415,0S441.38,23.72,441.38,52.966"/>
		<path style="fill:#F0C419;" d="M150.07,247.172c0,29.246-23.72,52.966-52.966,52.966s-52.966-23.72-52.966-52.966
			s23.72-52.966,52.966-52.966S150.07,217.927,150.07,247.172"/>
	</g>
</g>
</svg>